<?xml version="1.0" encoding="UTF-8"?>
<svg xmlns="http://www.w3.org/2000/svg" xmlns:xlink="http://www.w3.org/1999/xlink" width="30px" height="30px" viewBox="0 0 30 30" version="1.1">
<g id="surface1">
<path style=" stroke:none;fill-rule:nonzero;fill:#fff;fill-opacity:1;" d="M 19.375 17.5 L 18.386719 17.5 L 18.039062 17.164062 C 19.261719 15.738281 20 13.886719 20 11.875 C 20 7.386719 16.363281 3.75 11.875 3.75 C 7.386719 3.75 3.75 7.386719 3.75 11.875 C 3.75 16.363281 7.386719 20 11.875 20 C 13.886719 20 15.738281 19.261719 17.164062 18.039062 L 17.5 18.386719 L 17.5 19.375 L 23.75 25.613281 L 25.613281 23.75 Z M 11.875 17.5 C 8.761719 17.5 6.25 14.988281 6.25 11.875 C 6.25 8.761719 8.761719 6.25 11.875 6.25 C 14.988281 6.25 17.5 8.761719 17.5 11.875 C 17.5 14.988281 14.988281 17.5 11.875 17.5 Z M 11.875 17.5 "/>
</g>
</svg>
