<?xml version="1.0" encoding="UTF-8"?>
<svg xmlns="http://www.w3.org/2000/svg" xmlns:xlink="http://www.w3.org/1999/xlink" width="70px" height="60px" viewBox="0 -30 71 70" version="1.1">
<g id="surface1">
<path style=" stroke:none;fill-rule:nonzero;fill:rgb(85.490196%,90.980392%,94.509804%);fill-opacity:1;" d="M 66.640625 10.203125 L 66.640625 17.554688 L 66.636719 17.554688 L 53.792969 14.664062 L 58.144531 13.25 C 58.511719 13.125 58.476562 12.875 58.476562 12.875 L 58.480469 9.335938 L 65.746094 9.335938 C 65.878906 9.335938 66.640625 9.375 66.640625 10.203125 Z M 66.640625 10.203125 "/>
<path style=" stroke:none;fill-rule:nonzero;fill:rgb(92.54902%,71.372549%,32.941176%);fill-opacity:1;" d="M 58.476562 12.875 C 58.476562 12.875 58.511719 13.125 58.144531 13.25 L 53.792969 14.664062 L 53.195312 14.53125 L 53.191406 10.046875 C 53.191406 10.046875 53.191406 10.019531 53.1875 9.972656 L 53.1875 9.957031 C 53.191406 9.773438 53.253906 9.351562 53.773438 9.335938 L 58.480469 9.335938 Z M 58.476562 12.875 "/>
<path style=" stroke:none;fill-rule:nonzero;fill:rgb(67.843137%,55.294118%,23.137255%);fill-opacity:1;" d="M 58.488281 6.808594 L 58.480469 9.335938 L 53.773438 9.335938 C 53.253906 9.351562 53.191406 9.773438 53.1875 9.957031 L 53.1875 9.972656 C 53.191406 10.019531 53.191406 10.046875 53.191406 10.046875 L 53.195312 14.53125 L 52.703125 14.417969 C 52.175781 14.417969 51.75 13.984375 51.75 13.449219 L 51.75 7.265625 L 51.972656 7.234375 L 58.09375 6.445312 C 58.09375 6.445312 58.121094 6.4375 58.164062 6.4375 L 58.183594 6.4375 C 58.300781 6.4375 58.488281 6.488281 58.488281 6.808594 Z M 58.488281 6.808594 "/>
<path style=" stroke:none;fill-rule:nonzero;fill:rgb(88.627451%,88.627451%,89.411765%);fill-opacity:1;" d="M 66.582031 23.632812 C 66.519531 23.804688 66.378906 23.976562 66.082031 23.980469 L 66.074219 23.980469 C 65.929688 23.980469 65.75 23.941406 65.515625 23.835938 L 53.824219 19.578125 L 53.820312 19.578125 C 53.816406 19.574219 53.808594 19.574219 53.796875 19.570312 C 53.777344 19.558594 53.742188 19.546875 53.695312 19.523438 C 53.644531 19.496094 53.597656 19.472656 53.550781 19.441406 C 53.496094 19.40625 53.445312 19.367188 53.398438 19.320312 C 53.363281 19.289062 53.328125 19.25 53.300781 19.207031 C 53.277344 19.164062 53.253906 19.121094 53.230469 19.078125 C 53.226562 19.058594 53.21875 19.035156 53.214844 19.015625 L 53.203125 18.957031 C 53.199219 18.941406 53.195312 18.933594 53.199219 18.921875 L 53.199219 18.890625 L 53.195312 14.859375 L 53.777344 14.667969 L 53.792969 14.664062 L 66.636719 17.554688 L 66.636719 23.320312 C 66.636719 23.320312 66.644531 23.476562 66.582031 23.632812 Z M 66.582031 23.632812 "/>
<path style=" stroke:none;fill-rule:nonzero;fill:rgb(96.078431%,63.921569%,0%);fill-opacity:1;" d="M 53.195312 14.53125 L 52.703125 14.417969 C 52.175781 14.417969 51.75 13.984375 51.75 13.449219 L 51.75 7.265625 L 50.085938 7.480469 C 49.628906 7.582031 49.585938 7.992188 49.585938 8.136719 L 49.585938 8.144531 C 49.585938 8.175781 49.589844 8.191406 49.589844 8.191406 L 49.589844 15.429688 C 49.59375 15.773438 49.792969 15.855469 49.976562 15.859375 L 50.003906 15.859375 C 50.148438 15.855469 50.277344 15.804688 50.277344 15.804688 L 53.191406 14.859375 L 53.195312 14.859375 L 53.777344 14.667969 L 53.792969 14.664062 Z M 1.40625 0 C 1.023438 0 0.695312 0.140625 0.417969 0.417969 C 0.140625 0.699219 0 1.035156 0 1.429688 C 0 1.816406 0.140625 2.148438 0.417969 2.425781 C 0.695312 2.707031 1.023438 2.847656 1.40625 2.847656 C 1.800781 2.847656 2.132812 2.707031 2.410156 2.425781 C 2.691406 2.148438 2.828125 1.816406 2.828125 1.429688 C 2.828125 1.035156 2.691406 0.699219 2.410156 0.417969 C 2.132812 0.140625 1.800781 0 1.40625 0 Z M 1.40625 0 "/>
<path style=" stroke:none;fill-rule:nonzero;fill:rgb(0%,37.254902%,63.137255%);fill-opacity:1;" d="M 70.046875 0.0195312 L 52.703125 0.0195312 C 52.175781 0.0195312 51.75 0.457031 51.75 0.992188 L 51.75 7.265625 L 51.972656 7.234375 L 58.09375 6.445312 C 58.09375 6.445312 58.121094 6.4375 58.164062 6.4375 L 58.183594 6.4375 C 58.300781 6.4375 58.488281 6.488281 58.488281 6.808594 L 58.480469 9.335938 L 65.746094 9.335938 C 65.878906 9.335938 66.640625 9.375 66.640625 10.203125 L 66.640625 17.558594 L 70.019531 18.320312 C 70.542969 18.320312 70.976562 17.882812 70.976562 17.347656 L 71 0.992188 C 71 0.457031 70.574219 0.0195312 70.046875 0.0195312 Z M 2.273438 5.519531 L 0.554688 5.519531 L 0.554688 18.925781 L 2.273438 18.925781 Z M 9.300781 11.296875 C 8.25 10.757812 7.558594 10.285156 7.230469 9.882812 C 6.902344 9.488281 6.738281 9.074219 6.738281 8.636719 C 6.738281 8.144531 6.9375 7.714844 7.335938 7.34375 C 7.734375 6.972656 8.214844 6.789062 8.773438 6.789062 C 9.652344 6.789062 10.550781 7.238281 11.472656 8.132812 L 12.578125 6.984375 C 11.332031 5.777344 10.089844 5.175781 8.859375 5.175781 C 7.800781 5.175781 6.921875 5.511719 6.230469 6.183594 C 5.535156 6.859375 5.1875 7.703125 5.1875 8.722656 C 5.1875 9.503906 5.40625 10.199219 5.84375 10.804688 C 6.277344 11.414062 7.097656 12.03125 8.308594 12.65625 C 9.433594 13.230469 10.15625 13.707031 10.476562 14.082031 C 10.796875 14.46875 10.957031 14.910156 10.957031 15.402344 C 10.957031 16.003906 10.714844 16.523438 10.230469 16.964844 C 9.742188 17.410156 9.15625 17.632812 8.464844 17.632812 C 7.480469 17.632812 6.546875 17.136719 5.667969 16.140625 L 4.585938 17.375 C 5.046875 17.964844 5.628906 18.429688 6.328125 18.765625 C 7.03125 19.101562 7.769531 19.269531 8.539062 19.269531 C 9.699219 19.269531 10.660156 18.890625 11.433594 18.125 C 12.207031 17.359375 12.589844 16.429688 12.589844 15.328125 C 12.589844 14.546875 12.367188 13.84375 11.914062 13.222656 C 11.453125 12.605469 10.582031 11.964844 9.300781 11.296875 Z M 24.589844 18.820312 C 25.367188 18.519531 26.070312 18.085938 26.695312 17.507812 C 27.316406 16.933594 27.867188 16.179688 28.34375 15.242188 L 26.890625 14.476562 C 26.367188 15.351562 25.878906 15.988281 25.425781 16.378906 C 24.976562 16.773438 24.425781 17.089844 23.785156 17.324219 C 23.148438 17.5625 22.472656 17.683594 21.796875 17.679688 C 20.382812 17.679688 19.199219 17.183594 18.238281 16.1875 C 17.277344 15.191406 16.78125 13.914062 16.746094 12.359375 L 28.785156 12.359375 C 28.769531 10.527344 28.277344 9 27.308594 7.773438 C 25.945312 6.042969 24.125 5.175781 21.84375 5.175781 C 19.628906 5.175781 17.859375 6.019531 16.539062 7.714844 C 15.496094 9.042969 14.976562 10.558594 14.976562 12.257812 C 14.976562 14.066406 15.59375 15.6875 16.824219 17.121094 C 18.054688 18.554688 19.761719 19.269531 21.941406 19.269531 C 22.925781 19.269531 23.808594 19.121094 24.589844 18.820312 Z M 18.484375 8.09375 C 19.425781 7.25 20.554688 6.824219 21.867188 6.824219 C 22.664062 6.824219 23.425781 6.996094 24.144531 7.332031 C 24.867188 7.667969 25.449219 8.113281 25.886719 8.660156 C 26.328125 9.210938 26.664062 9.949219 26.890625 10.867188 L 16.917969 10.867188 C 17.273438 9.636719 17.792969 8.710938 18.484375 8.09375 Z M 43.921875 7.234375 C 42.574219 5.859375 40.949219 5.175781 39.046875 5.175781 C 37.957031 5.175781 36.972656 5.410156 36.085938 5.878906 C 35.203125 6.347656 34.421875 7.046875 33.742188 7.984375 L 33.742188 5.519531 L 32.019531 5.519531 L 32.019531 23.832031 L 33.742188 23.832031 L 33.742188 16.621094 C 34.460938 17.5 35.269531 18.164062 36.160156 18.605469 C 37.054688 19.050781 38.03125 19.269531 39.097656 19.269531 C 40.988281 19.269531 42.605469 18.582031 43.941406 17.207031 C 45.28125 15.832031 45.953125 14.15625 45.953125 12.1875 C 45.953125 10.257812 45.273438 8.605469 43.921875 7.234375 Z M 43.480469 14.949219 C 43 15.8125 42.351562 16.480469 41.535156 16.960938 C 40.722656 17.441406 39.855469 17.679688 38.929688 17.679688 C 37.988281 17.679688 37.097656 17.445312 36.25 16.96875 C 35.402344 16.492188 34.753906 15.847656 34.296875 15.035156 C 33.84375 14.222656 33.617188 13.308594 33.617188 12.289062 C 33.617188 10.738281 34.128906 9.445312 35.144531 8.402344 C 36.164062 7.359375 37.417969 6.839844 38.90625 6.839844 C 39.863281 6.839844 40.746094 7.074219 41.554688 7.546875 C 42.363281 8.019531 43.007812 8.679688 43.488281 9.535156 C 43.964844 10.386719 44.207031 11.289062 44.207031 12.242188 C 44.207031 13.183594 43.964844 14.085938 43.480469 14.949219 Z M 0 29.074219 L 1.832031 29.074219 L 1.832031 28.761719 L 0.320312 28.761719 L 0.320312 27.492188 L 1.832031 27.492188 L 1.832031 27.175781 L 0.320312 27.175781 L 0.320312 26.167969 L 1.84375 26.167969 L 1.84375 25.851562 L 0 25.851562 Z M 0.914062 25.597656 L 1.558594 24.921875 L 1.089844 24.921875 L 0.613281 25.597656 Z M 3.558594 26.917969 C 3.917969 26.917969 4.207031 27.058594 4.414062 27.335938 L 4.65625 27.1875 C 4.585938 27.066406 4.5 26.96875 4.398438 26.890625 C 4.296875 26.8125 4.171875 26.75 4.023438 26.703125 C 3.878906 26.652344 3.722656 26.628906 3.570312 26.628906 C 3.316406 26.628906 3.089844 26.683594 2.890625 26.796875 C 2.691406 26.902344 2.523438 27.0625 2.410156 27.261719 C 2.296875 27.453125 2.234375 27.675781 2.238281 27.902344 C 2.238281 28.246094 2.359375 28.539062 2.609375 28.777344 C 2.855469 29.015625 3.167969 29.136719 3.546875 29.136719 C 3.789062 29.136719 4.007812 29.089844 4.199219 28.996094 C 4.390625 28.898438 4.542969 28.765625 4.65625 28.59375 L 4.414062 28.433594 C 4.195312 28.714844 3.910156 28.855469 3.558594 28.855469 C 3.367188 28.855469 3.195312 28.8125 3.042969 28.726562 C 2.890625 28.644531 2.765625 28.519531 2.679688 28.371094 C 2.59375 28.222656 2.546875 28.050781 2.546875 27.878906 C 2.546875 27.613281 2.644531 27.386719 2.835938 27.199219 C 3.027344 27.011719 3.265625 26.917969 3.558594 26.917969 Z M 6.371094 26.628906 C 6.003906 26.628906 5.699219 26.761719 5.457031 27.03125 C 5.238281 27.273438 5.128906 27.558594 5.128906 27.890625 C 5.128906 28.222656 5.246094 28.515625 5.476562 28.761719 C 5.710938 29.011719 6.007812 29.136719 6.371094 29.136719 C 6.734375 29.136719 7.035156 29.011719 7.265625 28.761719 C 7.496094 28.515625 7.613281 28.222656 7.613281 27.890625 C 7.613281 27.558594 7.503906 27.269531 7.285156 27.027344 C 7.042969 26.761719 6.738281 26.628906 6.371094 26.628906 Z M 7.175781 28.378906 C 7.09375 28.527344 6.980469 28.644531 6.839844 28.722656 C 6.695312 28.804688 6.542969 28.84375 6.371094 28.84375 C 6.203125 28.84375 6.046875 28.804688 5.902344 28.722656 C 5.761719 28.644531 5.648438 28.527344 5.566406 28.378906 C 5.484375 28.230469 5.441406 28.066406 5.441406 27.894531 C 5.441406 27.628906 5.53125 27.402344 5.714844 27.210938 C 5.898438 27.023438 6.117188 26.929688 6.371094 26.929688 C 6.625 26.929688 6.84375 27.023438 7.027344 27.210938 C 7.210938 27.402344 7.300781 27.628906 7.300781 27.894531 C 7.300781 28.070312 7.261719 28.230469 7.175781 28.378906 Z M 8.132812 29.074219 L 8.4375 29.074219 L 8.4375 25.769531 L 8.132812 25.769531 Z M 11.152344 27.09375 C 10.910156 26.785156 10.585938 26.628906 10.179688 26.628906 C 9.785156 26.628906 9.472656 26.78125 9.238281 27.082031 C 9.050781 27.316406 8.960938 27.585938 8.960938 27.890625 C 8.960938 28.210938 9.070312 28.5 9.289062 28.753906 C 9.507812 29.007812 9.808594 29.136719 10.199219 29.136719 C 10.375 29.136719 10.53125 29.109375 10.667969 29.058594 C 10.808594 29.003906 10.933594 28.925781 11.042969 28.824219 C 11.15625 28.722656 11.253906 28.585938 11.335938 28.417969 L 11.078125 28.285156 C 10.984375 28.441406 10.898438 28.550781 10.816406 28.621094 C 10.738281 28.691406 10.640625 28.75 10.527344 28.789062 C 10.410156 28.832031 10.292969 28.855469 10.171875 28.855469 C 9.921875 28.855469 9.710938 28.765625 9.539062 28.585938 C 9.367188 28.410156 9.28125 28.183594 9.273438 27.90625 L 11.414062 27.90625 C 11.414062 27.582031 11.324219 27.308594 11.152344 27.09375 Z M 9.304688 27.640625 C 9.367188 27.421875 9.460938 27.257812 9.582031 27.148438 C 9.75 27 9.953125 26.921875 10.183594 26.921875 C 10.328125 26.921875 10.460938 26.953125 10.589844 27.011719 C 10.71875 27.074219 10.824219 27.152344 10.898438 27.25 C 10.980469 27.347656 11.039062 27.480469 11.078125 27.640625 Z M 15.300781 27.128906 C 15.179688 26.960938 15.039062 26.835938 14.882812 26.753906 C 14.722656 26.671875 14.546875 26.628906 14.351562 26.628906 C 14.015625 26.628906 13.726562 26.75 13.484375 26.996094 C 13.242188 27.238281 13.125 27.53125 13.125 27.875 C 13.125 28.226562 13.242188 28.523438 13.480469 28.769531 C 13.71875 29.015625 14.007812 29.136719 14.34375 29.136719 C 14.53125 29.136719 14.707031 29.097656 14.867188 29.019531 C 15.027344 28.9375 15.171875 28.820312 15.300781 28.667969 L 15.300781 29.074219 L 15.601562 29.074219 L 15.601562 25.769531 L 15.300781 25.769531 Z M 15.199219 28.382812 C 15.117188 28.527344 15 28.640625 14.851562 28.726562 C 14.703125 28.8125 14.542969 28.855469 14.375 28.855469 C 14.210938 28.855469 14.050781 28.808594 13.910156 28.726562 C 13.765625 28.640625 13.648438 28.519531 13.5625 28.367188 C 13.476562 28.214844 13.433594 28.054688 13.433594 27.886719 C 13.433594 27.71875 13.476562 27.558594 13.5625 27.40625 C 13.648438 27.253906 13.761719 27.136719 13.90625 27.050781 C 14.046875 26.96875 14.210938 26.925781 14.378906 26.925781 C 14.640625 26.925781 14.867188 27.019531 15.046875 27.203125 C 15.226562 27.390625 15.320312 27.621094 15.320312 27.894531 C 15.320312 28.078125 15.277344 28.238281 15.199219 28.382812 Z M 16.503906 26.371094 L 16.695312 26.371094 C 16.6875 26.472656 16.675781 26.554688 16.65625 26.617188 C 16.636719 26.679688 16.597656 26.765625 16.542969 26.878906 L 16.710938 26.972656 C 16.785156 26.824219 16.835938 26.699219 16.863281 26.589844 C 16.886719 26.484375 16.898438 26.335938 16.898438 26.148438 L 16.898438 25.769531 L 16.503906 25.769531 Z M 17.820312 29.074219 L 18.128906 29.074219 L 18.128906 26.691406 L 17.820312 26.691406 Z M 17.972656 25.707031 C 17.90625 25.707031 17.847656 25.734375 17.796875 25.785156 C 17.746094 25.832031 17.722656 25.894531 17.722656 25.964844 C 17.722656 26.03125 17.746094 26.09375 17.796875 26.140625 C 17.847656 26.191406 17.90625 26.214844 17.972656 26.214844 C 18.039062 26.214844 18.105469 26.191406 18.152344 26.140625 C 18.199219 26.09375 18.226562 26.03125 18.226562 25.964844 C 18.226562 25.894531 18.199219 25.832031 18.152344 25.785156 C 18.105469 25.734375 18.039062 25.707031 17.972656 25.707031 Z M 20.433594 26.765625 C 20.296875 26.675781 20.140625 26.628906 19.960938 26.628906 C 19.785156 26.628906 19.625 26.671875 19.476562 26.75 C 19.328125 26.832031 19.191406 26.953125 19.070312 27.117188 L 19.070312 26.691406 L 18.761719 26.691406 L 18.761719 29.074219 L 19.070312 29.074219 L 19.070312 28.199219 C 19.070312 27.886719 19.085938 27.671875 19.113281 27.550781 C 19.160156 27.371094 19.257812 27.21875 19.402344 27.097656 C 19.550781 26.972656 19.714844 26.914062 19.902344 26.914062 C 20.0625 26.914062 20.195312 26.953125 20.292969 27.03125 C 20.394531 27.113281 20.464844 27.230469 20.5 27.386719 C 20.519531 27.480469 20.53125 27.664062 20.53125 27.9375 L 20.53125 29.074219 L 20.839844 29.074219 L 20.839844 27.847656 C 20.839844 27.523438 20.804688 27.285156 20.742188 27.132812 C 20.675781 26.980469 20.570312 26.855469 20.433594 26.765625 Z M 23.546875 27.105469 C 23.402344 26.933594 23.253906 26.816406 23.101562 26.742188 C 22.945312 26.667969 22.78125 26.628906 22.601562 26.628906 C 22.386719 26.628906 22.183594 26.683594 21.992188 26.796875 C 21.800781 26.902344 21.644531 27.058594 21.535156 27.25 C 21.425781 27.4375 21.371094 27.648438 21.371094 27.867188 C 21.371094 28.085938 21.425781 28.289062 21.53125 28.472656 C 21.632812 28.65625 21.785156 28.804688 21.976562 28.914062 C 22.164062 29.019531 22.375 29.078125 22.59375 29.074219 C 22.78125 29.074219 22.957031 29.035156 23.125 28.957031 C 23.289062 28.882812 23.433594 28.765625 23.546875 28.621094 L 23.546875 28.746094 C 23.546875 29.007812 23.515625 29.195312 23.453125 29.316406 C 23.394531 29.433594 23.289062 29.53125 23.148438 29.609375 C 23.003906 29.6875 22.824219 29.726562 22.617188 29.726562 C 22.40625 29.726562 22.230469 29.6875 22.085938 29.613281 C 21.941406 29.535156 21.824219 29.417969 21.734375 29.261719 L 21.402344 29.261719 C 21.488281 29.449219 21.582031 29.589844 21.683594 29.6875 C 21.785156 29.785156 21.917969 29.863281 22.082031 29.921875 C 22.242188 29.980469 22.425781 30.007812 22.632812 30.007812 C 22.910156 30.007812 23.148438 29.949219 23.347656 29.832031 C 23.546875 29.714844 23.683594 29.542969 23.765625 29.324219 C 23.824219 29.171875 23.851562 28.925781 23.851562 28.589844 L 23.851562 26.691406 L 23.546875 26.691406 Z M 23.304688 28.53125 C 23.132812 28.703125 22.90625 28.785156 22.625 28.785156 C 22.347656 28.785156 22.121094 28.703125 21.945312 28.53125 C 21.769531 28.359375 21.683594 28.140625 21.683594 27.882812 C 21.683594 27.707031 21.726562 27.546875 21.808594 27.398438 C 21.890625 27.253906 22.011719 27.132812 22.160156 27.050781 C 22.304688 26.96875 22.472656 26.925781 22.644531 26.925781 C 22.804688 26.925781 22.964844 26.96875 23.109375 27.046875 C 23.253906 27.128906 23.363281 27.242188 23.441406 27.382812 C 23.523438 27.523438 23.5625 27.683594 23.5625 27.863281 C 23.5625 28.140625 23.476562 28.363281 23.304688 28.53125 Z M 25.597656 26.246094 L 26.246094 25.574219 L 25.773438 25.574219 L 25.296875 26.246094 Z M 26.585938 27.09375 C 26.34375 26.785156 26.019531 26.628906 25.613281 26.628906 C 25.21875 26.628906 24.90625 26.78125 24.667969 27.082031 C 24.484375 27.316406 24.390625 27.585938 24.390625 27.890625 C 24.390625 28.210938 24.5 28.5 24.71875 28.753906 C 24.9375 29.007812 25.242188 29.136719 25.632812 29.136719 C 25.804688 29.136719 25.964844 29.109375 26.101562 29.054688 C 26.238281 29.003906 26.367188 28.925781 26.476562 28.824219 C 26.585938 28.722656 26.683594 28.585938 26.769531 28.421875 L 26.511719 28.285156 C 26.417969 28.441406 26.332031 28.550781 26.25 28.621094 C 26.171875 28.691406 26.074219 28.75 25.957031 28.789062 C 25.84375 28.832031 25.726562 28.855469 25.605469 28.855469 C 25.355469 28.855469 25.140625 28.765625 24.972656 28.589844 C 24.800781 28.410156 24.710938 28.183594 24.707031 27.90625 L 26.847656 27.90625 C 26.84375 27.582031 26.757812 27.308594 26.585938 27.09375 Z M 24.738281 27.640625 C 24.800781 27.421875 24.894531 27.257812 25.015625 27.148438 C 25.183594 27 25.382812 26.921875 25.617188 26.921875 C 25.757812 26.921875 25.894531 26.953125 26.023438 27.011719 C 26.152344 27.074219 26.253906 27.152344 26.332031 27.25 C 26.410156 27.347656 26.46875 27.476562 26.511719 27.640625 Z M 29.089844 26.765625 C 28.953125 26.675781 28.796875 26.628906 28.617188 26.628906 C 28.441406 26.628906 28.28125 26.671875 28.132812 26.75 C 27.984375 26.832031 27.847656 26.953125 27.726562 27.117188 L 27.726562 26.691406 L 27.417969 26.691406 L 27.417969 29.074219 L 27.726562 29.074219 L 27.726562 28.199219 C 27.726562 27.886719 27.738281 27.671875 27.769531 27.550781 C 27.816406 27.371094 27.910156 27.21875 28.058594 27.097656 C 28.207031 26.972656 28.371094 26.914062 28.554688 26.914062 C 28.71875 26.914062 28.847656 26.953125 28.949219 27.03125 C 29.050781 27.113281 29.117188 27.230469 29.152344 27.386719 C 29.175781 27.480469 29.1875 27.664062 29.1875 27.9375 L 29.1875 29.074219 L 29.492188 29.074219 L 29.492188 27.847656 C 29.492188 27.523438 29.460938 27.285156 29.394531 27.132812 C 29.332031 26.980469 29.226562 26.855469 29.089844 26.765625 Z M 30.257812 25.707031 C 30.1875 25.707031 30.128906 25.734375 30.078125 25.785156 C 30.03125 25.832031 30.003906 25.894531 30.003906 25.964844 C 30.003906 26.03125 30.03125 26.09375 30.078125 26.140625 C 30.128906 26.191406 30.1875 26.214844 30.257812 26.214844 C 30.324219 26.214844 30.386719 26.191406 30.433594 26.140625 C 30.484375 26.09375 30.507812 26.03125 30.507812 25.964844 C 30.507812 25.894531 30.484375 25.832031 30.433594 25.785156 C 30.386719 25.734375 30.324219 25.707031 30.257812 25.707031 Z M 30.105469 29.074219 L 30.410156 29.074219 L 30.410156 26.691406 L 30.105469 26.691406 Z M 33.125 27.09375 C 32.882812 26.785156 32.558594 26.628906 32.152344 26.628906 C 31.757812 26.628906 31.445312 26.78125 31.207031 27.082031 C 31.023438 27.316406 30.929688 27.585938 30.929688 27.890625 C 30.929688 28.210938 31.039062 28.5 31.257812 28.753906 C 31.476562 29.007812 31.78125 29.136719 32.167969 29.136719 C 32.34375 29.136719 32.5 29.109375 32.640625 29.058594 C 32.777344 29.003906 32.90625 28.925781 33.015625 28.824219 C 33.125 28.722656 33.222656 28.585938 33.308594 28.417969 L 33.050781 28.285156 C 32.957031 28.441406 32.871094 28.550781 32.789062 28.621094 C 32.710938 28.691406 32.613281 28.75 32.496094 28.789062 C 32.382812 28.832031 32.265625 28.855469 32.144531 28.855469 C 31.890625 28.855469 31.679688 28.765625 31.511719 28.585938 C 31.339844 28.410156 31.25 28.183594 31.246094 27.90625 L 33.386719 27.90625 C 33.382812 27.582031 33.296875 27.308594 33.125 27.09375 Z M 31.277344 27.640625 C 31.339844 27.421875 31.433594 27.257812 31.554688 27.148438 C 31.722656 27 31.921875 26.921875 32.15625 26.921875 C 32.296875 26.921875 32.433594 26.953125 32.5625 27.011719 C 32.691406 27.074219 32.792969 27.152344 32.871094 27.25 C 32.949219 27.347656 33.007812 27.480469 33.050781 27.640625 Z M 35.6875 27.804688 C 35.6875 28.101562 35.671875 28.296875 35.640625 28.390625 C 35.597656 28.523438 35.511719 28.636719 35.394531 28.714844 C 35.277344 28.796875 35.132812 28.839844 34.960938 28.839844 C 34.789062 28.839844 34.640625 28.796875 34.519531 28.710938 C 34.394531 28.625 34.3125 28.511719 34.269531 28.363281 C 34.238281 28.261719 34.222656 28.078125 34.222656 27.804688 L 34.222656 26.691406 L 33.917969 26.691406 L 33.917969 27.839844 C 33.917969 28.179688 33.957031 28.433594 34.03125 28.601562 C 34.109375 28.769531 34.226562 28.902344 34.378906 28.996094 C 34.535156 29.089844 34.730469 29.136719 34.960938 29.136719 C 35.191406 29.136719 35.386719 29.089844 35.539062 28.996094 C 35.691406 28.902344 35.8125 28.765625 35.886719 28.605469 C 35.960938 28.4375 36 28.191406 36 27.859375 L 36 26.691406 L 35.6875 26.691406 Z M 37.171875 26.730469 C 37.070312 26.800781 36.96875 26.902344 36.878906 27.039062 L 36.878906 26.691406 L 36.5625 26.691406 L 36.5625 29.074219 L 36.878906 29.074219 L 36.878906 28.269531 C 36.878906 27.855469 36.894531 27.582031 36.933594 27.445312 C 36.984375 27.269531 37.054688 27.136719 37.148438 27.054688 C 37.246094 26.96875 37.34375 26.925781 37.445312 26.925781 C 37.488281 26.925781 37.542969 26.941406 37.605469 26.96875 L 37.765625 26.710938 C 37.671875 26.65625 37.578125 26.628906 37.496094 26.628906 C 37.382812 26.628906 37.277344 26.664062 37.171875 26.730469 Z M 38.640625 27.71875 C 38.453125 27.621094 38.332031 27.539062 38.273438 27.46875 C 38.214844 27.398438 38.183594 27.324219 38.183594 27.246094 C 38.183594 27.15625 38.21875 27.082031 38.292969 27.015625 C 38.363281 26.949219 38.445312 26.917969 38.546875 26.917969 C 38.703125 26.917969 38.863281 26.996094 39.027344 27.15625 L 39.222656 26.953125 C 39 26.738281 38.78125 26.628906 38.5625 26.628906 C 38.375 26.628906 38.21875 26.6875 38.09375 26.808594 C 37.972656 26.929688 37.910156 27.078125 37.910156 27.261719 C 37.910156 27.398438 37.949219 27.523438 38.027344 27.632812 C 38.101562 27.738281 38.25 27.847656 38.464844 27.960938 C 38.664062 28.0625 38.792969 28.148438 38.847656 28.214844 C 38.90625 28.28125 38.933594 28.359375 38.933594 28.449219 C 38.933594 28.554688 38.890625 28.648438 38.804688 28.726562 C 38.71875 28.804688 38.617188 28.84375 38.492188 28.84375 C 38.316406 28.84375 38.152344 28.757812 37.992188 28.578125 L 37.800781 28.800781 C 37.882812 28.90625 37.992188 28.988281 38.113281 29.046875 C 38.234375 29.105469 38.367188 29.136719 38.503906 29.136719 C 38.710938 29.136719 38.882812 29.070312 39.019531 28.933594 C 39.15625 28.796875 39.226562 28.628906 39.226562 28.433594 C 39.226562 28.296875 39.1875 28.171875 39.105469 28.0625 C 39.023438 27.953125 38.867188 27.835938 38.640625 27.71875 Z M 43.078125 27.128906 C 42.960938 26.960938 42.820312 26.835938 42.664062 26.753906 C 42.503906 26.671875 42.328125 26.628906 42.132812 26.628906 C 41.792969 26.628906 41.503906 26.75 41.261719 26.996094 C 41.023438 27.238281 40.902344 27.53125 40.902344 27.875 C 40.902344 28.226562 41.023438 28.523438 41.261719 28.769531 C 41.5 29.015625 41.785156 29.136719 42.125 29.136719 C 42.3125 29.136719 42.488281 29.097656 42.648438 29.019531 C 42.808594 28.9375 42.949219 28.820312 43.078125 28.667969 L 43.078125 29.074219 L 43.378906 29.074219 L 43.378906 25.769531 L 43.078125 25.769531 Z M 42.976562 28.382812 C 42.894531 28.527344 42.78125 28.640625 42.632812 28.726562 C 42.480469 28.8125 42.324219 28.855469 42.15625 28.855469 C 41.992188 28.855469 41.828125 28.808594 41.6875 28.726562 C 41.542969 28.640625 41.429688 28.519531 41.34375 28.367188 C 41.257812 28.214844 41.214844 28.054688 41.214844 27.886719 C 41.214844 27.71875 41.257812 27.558594 41.339844 27.40625 C 41.425781 27.253906 41.539062 27.136719 41.683594 27.050781 C 41.828125 26.96875 41.992188 26.925781 42.15625 26.925781 C 42.421875 26.925781 42.644531 27.019531 42.828125 27.203125 C 43.007812 27.390625 43.097656 27.621094 43.097656 27.894531 C 43.097656 28.078125 43.058594 28.238281 42.976562 28.382812 Z M 45.804688 27.804688 C 45.804688 28.101562 45.789062 28.296875 45.757812 28.390625 C 45.714844 28.523438 45.628906 28.636719 45.511719 28.714844 C 45.390625 28.796875 45.246094 28.839844 45.078125 28.839844 C 44.90625 28.839844 44.757812 28.796875 44.636719 28.710938 C 44.511719 28.625 44.429688 28.511719 44.382812 28.363281 C 44.355469 28.261719 44.339844 28.078125 44.339844 27.804688 L 44.339844 26.691406 L 44.035156 26.691406 L 44.035156 27.839844 C 44.035156 28.179688 44.074219 28.433594 44.148438 28.601562 C 44.226562 28.769531 44.339844 28.902344 44.496094 28.996094 C 44.652344 29.089844 44.847656 29.136719 45.078125 29.136719 C 45.308594 29.136719 45.5 29.089844 45.65625 28.996094 C 45.808594 28.902344 45.925781 28.769531 46.003906 28.605469 C 46.078125 28.4375 46.117188 28.191406 46.117188 27.859375 L 46.117188 26.691406 L 45.804688 26.691406 Z M 49.707031 26.765625 C 49.570312 26.675781 49.414062 26.628906 49.234375 26.628906 C 49.058594 26.628906 48.898438 26.671875 48.75 26.75 C 48.601562 26.832031 48.464844 26.953125 48.34375 27.117188 L 48.34375 26.691406 L 48.035156 26.691406 L 48.035156 29.074219 L 48.34375 29.074219 L 48.34375 28.199219 C 48.34375 27.886719 48.359375 27.671875 48.386719 27.550781 C 48.433594 27.371094 48.53125 27.21875 48.675781 27.097656 C 48.824219 26.972656 48.988281 26.914062 49.175781 26.914062 C 49.335938 26.914062 49.46875 26.953125 49.566406 27.03125 C 49.667969 27.113281 49.738281 27.230469 49.773438 27.386719 C 49.792969 27.480469 49.804688 27.664062 49.804688 27.9375 L 49.804688 29.074219 L 50.113281 29.074219 L 50.113281 27.847656 C 50.113281 27.523438 50.078125 27.285156 50.011719 27.132812 C 49.949219 26.980469 49.84375 26.855469 49.707031 26.765625 Z M 52.496094 27.804688 C 52.496094 28.101562 52.484375 28.296875 52.453125 28.390625 C 52.40625 28.523438 52.324219 28.632812 52.207031 28.714844 C 52.085938 28.796875 51.941406 28.839844 51.769531 28.839844 C 51.601562 28.839844 51.453125 28.796875 51.328125 28.710938 C 51.207031 28.625 51.121094 28.511719 51.078125 28.363281 C 51.050781 28.261719 51.035156 28.078125 51.035156 27.804688 L 51.035156 26.691406 L 50.730469 26.691406 L 50.730469 27.839844 C 50.730469 28.179688 50.765625 28.433594 50.84375 28.601562 C 50.921875 28.769531 51.035156 28.902344 51.191406 28.996094 C 51.347656 29.089844 51.539062 29.136719 51.773438 29.136719 C 52.003906 29.136719 52.195312 29.089844 52.351562 28.996094 C 52.503906 28.902344 52.621094 28.765625 52.695312 28.605469 C 52.773438 28.4375 52.808594 28.191406 52.808594 27.859375 L 52.808594 26.691406 L 52.496094 26.691406 Z M 56.675781 26.753906 C 56.550781 26.671875 56.402344 26.628906 56.238281 26.628906 C 56.0625 26.628906 55.898438 26.679688 55.746094 26.777344 C 55.59375 26.871094 55.464844 27.015625 55.363281 27.203125 C 55.316406 27.0625 55.257812 26.953125 55.191406 26.878906 C 55.128906 26.804688 55.042969 26.742188 54.941406 26.699219 C 54.835938 26.652344 54.722656 26.628906 54.609375 26.628906 C 54.441406 26.628906 54.277344 26.675781 54.125 26.769531 C 54.011719 26.839844 53.902344 26.949219 53.796875 27.101562 L 53.796875 26.691406 L 53.488281 26.691406 L 53.488281 29.074219 L 53.796875 29.074219 L 53.796875 28.066406 C 53.796875 27.765625 53.824219 27.546875 53.882812 27.402344 C 53.941406 27.257812 54.035156 27.140625 54.15625 27.054688 C 54.28125 26.972656 54.414062 26.925781 54.554688 26.925781 C 54.675781 26.925781 54.78125 26.957031 54.871094 27.019531 C 54.957031 27.082031 55.023438 27.167969 55.058594 27.269531 C 55.09375 27.371094 55.109375 27.566406 55.109375 27.855469 L 55.109375 29.074219 L 55.417969 29.074219 L 55.417969 28.140625 C 55.417969 27.800781 55.445312 27.554688 55.5 27.410156 C 55.558594 27.265625 55.648438 27.148438 55.769531 27.058594 C 55.894531 26.972656 56.03125 26.925781 56.175781 26.925781 C 56.300781 26.925781 56.40625 26.957031 56.492188 27.015625 C 56.578125 27.070312 56.644531 27.152344 56.679688 27.246094 C 56.714844 27.34375 56.734375 27.519531 56.734375 27.773438 L 56.734375 29.074219 L 57.046875 29.074219 L 57.046875 27.773438 C 57.046875 27.476562 57.015625 27.25 56.957031 27.101562 C 56.894531 26.953125 56.800781 26.839844 56.675781 26.753906 Z M 58.957031 25.574219 L 58.480469 26.246094 L 58.78125 26.246094 L 59.425781 25.574219 Z M 59.769531 27.09375 C 59.527344 26.785156 59.203125 26.628906 58.796875 26.628906 C 58.402344 26.628906 58.089844 26.78125 57.851562 27.082031 C 57.667969 27.316406 57.574219 27.585938 57.574219 27.890625 C 57.574219 28.210938 57.683594 28.5 57.902344 28.753906 C 58.121094 29.007812 58.425781 29.136719 58.8125 29.136719 C 58.988281 29.136719 59.144531 29.109375 59.285156 29.054688 C 59.421875 29.003906 59.550781 28.925781 59.660156 28.824219 C 59.769531 28.722656 59.867188 28.585938 59.953125 28.421875 L 59.695312 28.285156 C 59.601562 28.441406 59.515625 28.550781 59.433594 28.621094 C 59.355469 28.691406 59.257812 28.75 59.140625 28.789062 C 59.027344 28.832031 58.910156 28.855469 58.789062 28.855469 C 58.539062 28.855469 58.328125 28.765625 58.15625 28.589844 C 57.984375 28.410156 57.898438 28.183594 57.890625 27.90625 L 60.03125 27.90625 C 60.027344 27.582031 59.941406 27.308594 59.769531 27.09375 Z M 57.921875 27.640625 C 57.984375 27.421875 58.078125 27.257812 58.199219 27.148438 C 58.367188 27 58.566406 26.921875 58.800781 26.921875 C 58.941406 26.921875 59.078125 26.953125 59.207031 27.011719 C 59.335938 27.074219 59.4375 27.152344 59.515625 27.25 C 59.59375 27.347656 59.652344 27.476562 59.695312 27.640625 Z M 61.09375 26.730469 C 60.992188 26.800781 60.890625 26.902344 60.800781 27.039062 L 60.800781 26.691406 L 60.484375 26.691406 L 60.484375 29.074219 L 60.800781 29.074219 L 60.800781 28.269531 C 60.800781 27.855469 60.816406 27.582031 60.855469 27.445312 C 60.90625 27.269531 60.976562 27.136719 61.070312 27.054688 C 61.167969 26.96875 61.265625 26.925781 61.367188 26.925781 C 61.410156 26.925781 61.464844 26.941406 61.53125 26.96875 L 61.6875 26.710938 C 61.59375 26.65625 61.503906 26.628906 61.417969 26.628906 C 61.304688 26.628906 61.199219 26.664062 61.09375 26.730469 Z M 62.054688 25.707031 C 61.988281 25.707031 61.929688 25.734375 61.878906 25.785156 C 61.828125 25.832031 61.804688 25.894531 61.804688 25.964844 C 61.804688 26.03125 61.828125 26.09375 61.878906 26.140625 C 61.925781 26.1875 61.988281 26.214844 62.054688 26.214844 C 62.125 26.214844 62.183594 26.191406 62.234375 26.140625 C 62.28125 26.09375 62.308594 26.03125 62.308594 25.964844 C 62.308594 25.894531 62.285156 25.832031 62.234375 25.785156 C 62.1875 25.734375 62.121094 25.707031 62.054688 25.707031 Z M 61.902344 29.074219 L 62.210938 29.074219 L 62.210938 26.691406 L 61.902344 26.691406 Z M 64.914062 27.128906 C 64.792969 26.960938 64.652344 26.835938 64.496094 26.753906 C 64.339844 26.671875 64.160156 26.628906 63.964844 26.628906 C 63.628906 26.628906 63.335938 26.75 63.097656 26.996094 C 62.855469 27.238281 62.738281 27.53125 62.738281 27.875 C 62.738281 28.226562 62.855469 28.523438 63.09375 28.769531 C 63.332031 29.015625 63.621094 29.136719 63.957031 29.136719 C 64.148438 29.136719 64.320312 29.097656 64.480469 29.019531 C 64.640625 28.9375 64.785156 28.820312 64.914062 28.667969 L 64.914062 29.949219 L 65.214844 29.949219 L 65.214844 26.691406 L 64.914062 26.691406 Z M 64.8125 28.382812 C 64.730469 28.527344 64.613281 28.640625 64.464844 28.726562 C 64.316406 28.8125 64.15625 28.855469 63.988281 28.855469 C 63.824219 28.855469 63.664062 28.808594 63.523438 28.726562 C 63.378906 28.640625 63.261719 28.519531 63.175781 28.367188 C 63.089844 28.214844 63.046875 28.054688 63.046875 27.886719 C 63.046875 27.71875 63.089844 27.558594 63.175781 27.40625 C 63.261719 27.253906 63.375 27.136719 63.519531 27.050781 C 63.660156 26.96875 63.824219 26.925781 63.992188 26.925781 C 64.257812 26.925781 64.480469 27.019531 64.660156 27.203125 C 64.839844 27.390625 64.933594 27.621094 64.933594 27.894531 C 64.933594 28.078125 64.890625 28.238281 64.8125 28.382812 Z M 67.628906 27.804688 C 67.628906 28.101562 67.617188 28.296875 67.585938 28.390625 C 67.539062 28.523438 67.457031 28.632812 67.339844 28.714844 C 67.21875 28.796875 67.074219 28.839844 66.902344 28.839844 C 66.734375 28.839844 66.585938 28.796875 66.460938 28.710938 C 66.339844 28.625 66.253906 28.511719 66.210938 28.363281 C 66.183594 28.261719 66.167969 28.078125 66.167969 27.804688 L 66.167969 26.691406 L 65.863281 26.691406 L 65.863281 27.839844 C 65.863281 28.179688 65.898438 28.433594 65.976562 28.601562 C 66.054688 28.769531 66.167969 28.902344 66.324219 28.996094 C 66.480469 29.089844 66.671875 29.136719 66.90625 29.136719 C 67.136719 29.136719 67.328125 29.089844 67.484375 28.996094 C 67.636719 28.902344 67.753906 28.765625 67.828125 28.605469 C 67.90625 28.4375 67.945312 28.191406 67.945312 27.859375 L 67.945312 26.691406 L 67.628906 26.691406 Z M 70.699219 27.09375 C 70.457031 26.785156 70.132812 26.628906 69.730469 26.628906 C 69.335938 26.628906 69.019531 26.78125 68.785156 27.082031 C 68.601562 27.316406 68.507812 27.585938 68.507812 27.890625 C 68.507812 28.210938 68.617188 28.5 68.835938 28.753906 C 69.054688 29.007812 69.359375 29.136719 69.746094 29.136719 C 69.921875 29.136719 70.078125 29.109375 70.21875 29.058594 C 70.355469 29.003906 70.484375 28.925781 70.59375 28.824219 C 70.703125 28.722656 70.800781 28.585938 70.886719 28.417969 L 70.625 28.285156 C 70.53125 28.441406 70.445312 28.550781 70.367188 28.621094 C 70.285156 28.691406 70.1875 28.75 70.074219 28.789062 C 69.960938 28.832031 69.839844 28.855469 69.71875 28.855469 C 69.46875 28.855469 69.257812 28.765625 69.085938 28.585938 C 68.917969 28.410156 68.828125 28.183594 68.824219 27.90625 L 70.964844 27.90625 C 70.960938 27.582031 70.871094 27.308594 70.699219 27.09375 Z M 68.851562 27.640625 C 68.917969 27.421875 69.007812 27.257812 69.132812 27.148438 C 69.300781 27 69.5 26.921875 69.734375 26.921875 C 69.875 26.921875 70.007812 26.953125 70.136719 27.011719 C 70.265625 27.074219 70.371094 27.152344 70.449219 27.25 C 70.527344 27.347656 70.585938 27.480469 70.625 27.640625 Z M 68.851562 27.640625 "/>
</g>
</svg>
